<svg width="1435" height="989" viewBox="0 0 1435 989" fill="none" xmlns="http://www.w3.org/2000/svg">
<g opacity="0.1">
<mask id="mask0_5230_19901" style="mask-type:luminance" maskUnits="userSpaceOnUse" x="0" y="0" width="1435" height="989">
<path d="M1434.1 988.51H0V0H1434.1V988.51Z" fill="white"/>
</mask>
<g mask="url(#mask0_5230_19901)">
<path d="M913.924 65.7476V-101.051L805.133 -17.6503L913.924 65.7476Z" fill="#031122"/>
<path d="M564.195 338.811C674.095 349.763 783.98 360.714 893.88 364.822" stroke="#031122" stroke-width="30.6665" stroke-miterlimit="10" stroke-linecap="round" stroke-linejoin="round"/>
<path d="M584.07 394.936C684.688 397.673 785.319 414.101 883.306 436.004" stroke="#031122" stroke-width="30.6666" stroke-miterlimit="10" stroke-linecap="round" stroke-linejoin="round"/>
<path opacity="0.2" d="M-155.891 865.773C-45.9979 876.725 63.9023 887.677 173.803 891.784" stroke="#031122" stroke-width="30.6667" stroke-miterlimit="10" stroke-linecap="round" stroke-linejoin="round"/>
<path d="M-136.031 921.902C-35.3974 924.64 65.2288 941.067 163.202 962.97" stroke="#031122" stroke-width="30.6667" stroke-miterlimit="10" stroke-linecap="round" stroke-linejoin="round"/>
<path d="M1047.39 -91.5508C1047.29 22.6005 1047.19 136.752 1053.67 250.254" stroke="#031122" stroke-width="30.6666" stroke-miterlimit="10" stroke-linecap="round" stroke-linejoin="round"/>
<path d="M995.247 -65.7793C1002.17 38.0529 995.912 143.185 984.137 246.111" stroke="#031122" stroke-width="30.6667" stroke-miterlimit="10" stroke-linecap="round" stroke-linejoin="round"/>
<path d="M1696.3 679.641C1587.54 699.231 1478.76 718.82 1371.74 745.011" stroke="#031122" stroke-width="30.6667" stroke-miterlimit="10" stroke-linecap="round" stroke-linejoin="round"/>
<path opacity="0.2" d="M1662.74 630.975C1565.02 655.942 1463.77 667.708 1363.69 673.47" stroke="#031122" stroke-width="30.6667" stroke-miterlimit="10" stroke-linecap="round" stroke-linejoin="round"/>
<path d="M339.919 123.728C273.712 51.1731 149.256 122.359 175.738 219.557C192.947 286.637 338.593 316.755 363.749 242.829C376.991 204.498 374.195 156.427 292.188 161.013" stroke="#031122" stroke-width="30.6667" stroke-miterlimit="10" stroke-linecap="round" stroke-linejoin="round"/>
<path d="M626.14 537.039C591.347 498.913 524.285 561.813 538.201 612.889C547.253 648.139 623.784 663.966 636.996 625.121C643.955 604.976 642.496 579.715 599.406 582.122" stroke="#031122" stroke-width="30.6667" stroke-miterlimit="10" stroke-linecap="round" stroke-linejoin="round"/>
<path d="M322.123 966.738C314.905 1066.2 449.65 1113.28 501.255 1027.54C537.573 969.182 460.92 837.642 391.151 868.258C354.833 883.982 322.374 918.517 380.921 978.058" stroke="#031122" stroke-width="30.6667" stroke-miterlimit="10" stroke-linecap="round" stroke-linejoin="round"/>
<path d="M1130.27 620.784C1075.57 560.831 972.71 619.654 994.594 699.971C1008.82 755.403 1129.17 780.287 1149.97 719.203C1160.91 687.529 1161.96 664.197 1094.21 667.985" stroke="#031122" stroke-width="30.6666" stroke-miterlimit="10" stroke-linecap="round" stroke-linejoin="round"/>
<path d="M666.856 73.201C713.202 7.4902 780.723 111.532 689.377 118.377C640.384 121.116 571.519 47.1906 620.525 7.49024C643.019 -10.306 688.045 6.12097 709.235 18.4416" stroke="#031122" stroke-width="30.6666" stroke-miterlimit="10" stroke-linecap="round" stroke-linejoin="round"/>
<path d="M-38.7639 726.47C7.58153 660.759 75.104 764.801 -16.2604 771.646C-65.2469 774.385 -134.095 700.459 -85.1093 660.759C-62.5939 642.964 -17.575 659.391 3.6019 671.711" stroke="#031122" stroke-width="30.6667" stroke-miterlimit="10" stroke-linecap="round" stroke-linejoin="round"/>
<path d="M618.555 981.329C654.856 1053.48 534.681 1069.69 569.417 982.06C588.841 935.483 683.524 904.64 696.104 967.668C701.495 996.429 667.227 1030.8 647.126 1044.93" stroke="#031122" stroke-width="30.6668" stroke-miterlimit="10" stroke-linecap="round" stroke-linejoin="round"/>
<path d="M384.699 -49.8836C419.118 -55.36 500.527 -46.6031 469.431 -17.028C438.347 12.5457 402.542 -17.8535 384.699 7.613C366.844 33.0795 401.908 45.9437 429.718 51.42" stroke="#031122" stroke-width="30.6667" stroke-miterlimit="10" stroke-linecap="round" stroke-linejoin="round"/>
<path opacity="0.2" d="M686.672 467.916C721.089 462.442 802.502 471.198 771.407 500.772C740.327 530.348 704.513 499.947 686.672 525.415C668.817 550.88 703.88 563.745 731.69 569.222" stroke="#031122" stroke-width="30.6667" stroke-miterlimit="10" stroke-linecap="round" stroke-linejoin="round"/>
<path d="M-45.2315 -6.52103C-10.813 -11.9961 70.5962 -3.23795 39.5001 26.3345C8.4159 55.9108 -27.3889 25.5104 -45.2315 50.9782C-63.0741 76.4433 -28.0223 89.3089 -0.212596 94.7852" stroke="#031122" stroke-width="30.6667" stroke-miterlimit="10" stroke-linecap="round" stroke-linejoin="round"/>
<path d="M1415.56 231.819C1450 226.344 1531.4 235.1 1500.32 264.674C1469.22 294.25 1433.42 263.85 1415.56 289.316C1397.73 314.782 1432.77 327.647 1460.59 333.123" stroke="#031122" stroke-width="30.6665" stroke-miterlimit="10" stroke-linecap="round" stroke-linejoin="round"/>
<path d="M93.3466 607.54C127.765 602.064 209.175 610.821 178.09 640.394C146.994 669.969 111.189 639.569 93.3466 665.037C75.504 690.504 110.556 703.368 138.365 708.844" stroke="#031122" stroke-width="30.6667" stroke-miterlimit="10" stroke-linecap="round" stroke-linejoin="round"/>
<path d="M313.819 373.361C306.911 408.66 270.891 484.64 254.758 444.27C238.636 403.898 278.576 379.634 261.618 353.532C244.647 327.43 220.877 357.017 206.32 382.113" stroke="#031122" stroke-width="30.6667" stroke-miterlimit="10" stroke-linecap="round" stroke-linejoin="round"/>
<path d="M951.364 1000.78C922.78 1021.37 845.969 1050.57 861.279 1009.86C876.602 969.154 921.686 980.146 926.877 949.157C932.054 918.167 895.096 922.579 867.785 930.322" stroke="#031122" stroke-width="30.6667" stroke-miterlimit="10" stroke-linecap="round" stroke-linejoin="round"/>
<path d="M905.547 5.63427C876.974 26.2245 800.164 55.4238 815.474 14.7144C830.798 -25.9908 875.889 -14.9981 881.069 -45.9864C886.25 -76.9762 849.282 -72.5666 821.984 -64.8226" stroke="#031122" stroke-width="30.6666" stroke-miterlimit="10" stroke-linecap="round" stroke-linejoin="round"/>
<path d="M503.97 189.953C613.87 229.651 497.349 285.78 478.813 328.218C453.656 385.715 513.244 422.678 493.381 473.329C480.14 508.921 403.344 539.04 371.566 547.253" stroke="#031122" stroke-width="30.6667" stroke-miterlimit="10" stroke-linecap="round" stroke-linejoin="round"/>
<path d="M1344.08 850.316C1229.85 873.465 1316.66 782.334 1311.93 736.027C1305.53 673.268 1222.71 717.207 1221.11 607.522C1219.49 497.836 1284.85 483.134 1334.23 478.191" stroke="#031122" stroke-width="30.6667" stroke-miterlimit="10" stroke-linecap="round" stroke-linejoin="round"/>
<path d="M15.9293 361.072C-116.472 411.724 41.0858 508.922 30.4974 399.404" stroke="#031122" stroke-width="30.6667" stroke-miterlimit="10" stroke-linecap="round" stroke-linejoin="round"/>
<path opacity="0.2" d="M672.714 257.176C582.686 255.807 623.737 144.92 704.495 201.047" stroke="#031122" stroke-width="30.6667" stroke-miterlimit="10" stroke-linecap="round" stroke-linejoin="round"/>
<path opacity="0.2" d="M160.872 79.3527C70.8462 77.9837 111.886 -32.9025 192.649 23.2251" stroke="#031122" stroke-width="30.6667" stroke-miterlimit="10" stroke-linecap="round" stroke-linejoin="round"/>
<path d="M1376.62 612.214C1282.65 669.939 1256.96 528.283 1374.98 533.286" stroke="#031122" stroke-width="30.6666" stroke-miterlimit="10" stroke-linecap="round" stroke-linejoin="round"/>
<path d="M1031.55 374.458C983.653 453.301 913.315 359.451 1001.66 317.234" stroke="#031122" stroke-width="30.6668" stroke-miterlimit="10" stroke-linecap="round" stroke-linejoin="round"/>
<path d="M1226.13 835.51C1178.24 914.351 1107.9 820.501 1196.24 778.285" stroke="#031122" stroke-width="30.6667" stroke-miterlimit="10" stroke-linecap="round" stroke-linejoin="round"/>
<path opacity="0.2" d="M481.537 641.127C433.661 719.969 363.319 626.119 451.648 583.902" stroke="#031122" stroke-width="30.6667" stroke-miterlimit="10" stroke-linecap="round" stroke-linejoin="round"/>
<path d="M515.943 51.0957C567.57 116.807 472.238 149.662 421.926 125.02" stroke="#031122" stroke-width="30.6667" stroke-miterlimit="10" stroke-linecap="round" stroke-linejoin="round"/>
<path d="M245.88 967.5C297.52 1033.21 202.188 1066.07 151.875 1041.43" stroke="#031122" stroke-width="30.6667" stroke-miterlimit="10" stroke-linecap="round" stroke-linejoin="round"/>
<path d="M667.585 812.868C597.241 827.065 611.932 737.405 651.043 707.365" stroke="white" stroke-opacity="0.08" stroke-width="30.6667" stroke-miterlimit="10" stroke-linecap="round" stroke-linejoin="round"/>
<path d="M1099.31 336.199C1125.46 267.201 1190.75 328.109 1194.3 378.358" stroke="#031122" stroke-width="30.6667" stroke-miterlimit="10" stroke-linecap="round" stroke-linejoin="round"/>
<path d="M963.756 893.075C939.711 812.138 1040.02 818.637 1077.72 860.986" stroke="#031122" stroke-width="30.6665" stroke-miterlimit="10" stroke-linecap="round" stroke-linejoin="round"/>
<path d="M398.371 718.607C438.096 725.453 608.192 711.618 517.545 755.569C426.886 799.525 557.258 895.205 600.95 914.371" stroke="#031122" stroke-width="30.6667" stroke-miterlimit="10" stroke-linecap="round" stroke-linejoin="round"/>
<path d="M5.02344 268.193C43.0033 282.009 212.873 298.663 116.25 325.82C19.6274 352.977 132.121 470.443 171.965 497.1" stroke="#031122" stroke-width="30.6667" stroke-miterlimit="10" stroke-linecap="round" stroke-linejoin="round"/>
<path d="M1119.06 391.229C1120.6 432.833 1148.8 578.406 1088.84 495.491C1028.88 412.58 978.63 501.062 969.312 549.179" stroke="#031122" stroke-width="30.6666" stroke-miterlimit="10" stroke-linecap="round" stroke-linejoin="round"/>
<path d="M871.064 547.146C970.732 558.132 900.787 734.324 840.838 651.412C780.876 568.499 730.63 656.98 721.305 705.099" stroke="#031122" stroke-width="30.6668" stroke-miterlimit="10" stroke-linecap="round" stroke-linejoin="round"/>
<path d="M1196.28 216.318C1236.01 223.164 1406.1 209.33 1315.45 253.282C1224.8 297.236 1314.84 379.655 1411.52 384.412" stroke="#031122" stroke-width="30.6665" stroke-miterlimit="10" stroke-linecap="round" stroke-linejoin="round"/>
<path d="M231.824 527.637C249.045 524.898 317.226 498.951 321.862 516.895C326.499 534.842 276.186 542.509 271.549 560.451C266.912 578.395 306.637 562.505 311.931 575.51C317.226 588.515 263.542 628.899 269.505 643.275C275.469 657.648 311.931 627.731 325.173 626.361" stroke="#031122" stroke-width="30.6667" stroke-miterlimit="10" stroke-linecap="round" stroke-linejoin="round"/>
<path d="M907.689 262.515C894.943 274.785 852.659 335.872 839.071 323.725C825.484 311.578 862.921 275.993 856.99 258.462C851.072 240.929 826.868 277.155 815.398 269.478C803.955 261.799 826.394 197.2 813.66 188.775C800.914 180.349 787.028 226.287 776.82 235.114" stroke="#031122" stroke-width="30.6666" stroke-miterlimit="10" stroke-linecap="round" stroke-linejoin="round"/>
<path d="M1345.3 1.32511C1359.88 -8.53101 1411.57 -61.3161 1422.98 -46.9595C1434.38 -32.6047 1391.64 -4.1045 1394.6 14.2121C1397.56 32.5288 1427.37 1.07523 1437.4 10.6516C1447.42 20.2279 1414.71 79.951 1425.87 90.4918C1437.04 101.029 1458.28 58.1952 1469.78 51.2854" stroke="#031122" stroke-width="30.6665" stroke-miterlimit="10" stroke-linecap="round" stroke-linejoin="round"/>
<path opacity="0.2" d="M1024.01 1016.24C1021.35 998.441 996.272 927.939 1013.61 923.148C1030.98 918.356 1038.39 970.38 1055.75 975.167C1073.1 979.957 1057.73 938.89 1070.31 933.414C1082.89 927.938 1121.93 983.441 1135.86 977.281C1149.75 971.121 1120.82 933.415 1119.49 919.725" stroke="#031122" stroke-width="30.6667" stroke-miterlimit="10" stroke-linecap="round" stroke-linejoin="round"/>
<path d="M785.655 953.223C820.651 882.115 748.966 922.426 740.136 833.514C730.675 738.466 849.546 726.67 873.306 810.42C885.697 854.087 861.856 874.028 824.844 867.285" stroke="#031122" stroke-width="30.6668" stroke-miterlimit="10" stroke-linecap="round" stroke-linejoin="round"/>
<path opacity="0.2" d="M1124.5 16.9417C1179.05 73.3704 1164.2 -9.57625 1248.68 9.27411C1339.02 29.4226 1313.05 149.941 1228.67 147.35C1184.66 146.002 1173.73 116.391 1191.39 82.0947" stroke="#031122" stroke-width="30.6667" stroke-miterlimit="10" stroke-linecap="round" stroke-linejoin="round"/>
<path d="M786.023 130.632C835.024 127.894 886.661 125.155 932.998 108.729" stroke="#031122" stroke-width="30.6666" stroke-miterlimit="10" stroke-linecap="round" stroke-linejoin="round"/>
<path d="M291.665 30.4514C265.038 -12.1534 237.086 -57.1342 200.289 -90.5645" stroke="#031122" stroke-width="30.6667" stroke-miterlimit="10" stroke-linecap="round" stroke-linejoin="round"/>
<path d="M1481.04 953.929C1454.42 911.322 1426.47 866.342 1389.67 832.912" stroke="#031122" stroke-width="30.6668" stroke-miterlimit="10" stroke-linecap="round" stroke-linejoin="round"/>
<path opacity="0.2" d="M1458.99 616.645C1444.92 568.048 1430.24 516.79 1403.92 474.068" stroke="#031122" stroke-width="30.6667" stroke-miterlimit="10" stroke-linecap="round" stroke-linejoin="round"/>
<path opacity="0.2" d="M1137.87 251.574C1126.46 212.139 1138.63 166.936 1117.27 132.268" stroke="#031122" stroke-width="30.6667" stroke-miterlimit="10" stroke-linecap="round" stroke-linejoin="round"/>
<path d="M386.383 449.38C387.518 408.234 421.626 324.785 411.874 284.936" stroke="#031122" stroke-width="30.6667" stroke-miterlimit="10" stroke-linecap="round" stroke-linejoin="round"/>
<path d="M1375.66 424.649C1302.36 416.41 1245.39 425.618 1208.75 441.58" stroke="#031122" stroke-width="30.6665" stroke-miterlimit="10" stroke-linecap="round" stroke-linejoin="round"/>
<path d="M1363.27 148.37C1410.94 170.272 1489.07 162.059 1499.65 101.822" stroke="#031122" stroke-width="30.6668" stroke-miterlimit="10" stroke-linecap="round" stroke-linejoin="round"/>
<path d="M-83.5234 497.439C-63.2548 547.133 -0.835437 596.398 46.741 559.955" stroke="white" stroke-opacity="0.08" stroke-width="30.6667" stroke-miterlimit="10" stroke-linecap="round" stroke-linejoin="round"/>
<path d="M95.0234 796.029C142.683 817.931 220.806 809.717 231.394 749.482" stroke="#031122" stroke-width="30.6667" stroke-miterlimit="10" stroke-linecap="round" stroke-linejoin="round"/>
<path d="M1223.57 944.596C1277.85 945.963 1334.79 951.439 1387.76 939.119" stroke="#031122" stroke-width="30.6667" stroke-miterlimit="10" stroke-linecap="round" stroke-linejoin="round"/>
<path d="M1279.18 987.336C1297.72 987.336 1316.25 987.336 1334.79 987.336" stroke="#031122" stroke-width="30.6668" stroke-miterlimit="10" stroke-linecap="round" stroke-linejoin="round"/>
<path d="M-85.2344 153.843C-30.9535 155.211 25.9804 160.687 78.9466 148.367" stroke="#031122" stroke-width="30.6667" stroke-miterlimit="10" stroke-linecap="round" stroke-linejoin="round"/>
<path opacity="0.2" d="M-29.625 196.584C-11.0892 196.584 7.4467 196.584 25.9824 196.584" stroke="#031122" stroke-width="30.6667" stroke-miterlimit="10" stroke-linecap="round" stroke-linejoin="round"/>
<path d="M256.828 864.852C284.77 816.708 317.467 768.208 333.242 714.5" stroke="#031122" stroke-width="30.6667" stroke-miterlimit="10" stroke-linecap="round" stroke-linejoin="round"/>
<path d="M320.223 835.932C329.365 819.262 338.52 802.592 347.662 785.922" stroke="#031122" stroke-width="30.6667" stroke-miterlimit="10" stroke-linecap="round" stroke-linejoin="round"/>
</g>
</g>
</svg>
