<svg width="3438" height="2764" viewBox="0 0 3438 2764" fill="none" xmlns="http://www.w3.org/2000/svg">
<g opacity="0.1">
<mask id="mask0_5234_20318" style="mask-type:luminance" maskUnits="userSpaceOnUse" x="0" y="0" width="1719" height="1382">
<path d="M1719 1382H0V0H1719V1382Z" fill="white"/>
</mask>
<g mask="url(#mask0_5234_20318)">
<path d="M721.195 531.82C831.095 544.163 940.98 556.504 1050.88 561.134" stroke="#031122" stroke-width="30.6665" stroke-miterlimit="10" stroke-linecap="round" stroke-linejoin="round"/>
<path d="M741.07 595.071C841.688 598.157 942.319 616.67 1040.31 641.354" stroke="#031122" stroke-width="30.6666" stroke-miterlimit="10" stroke-linecap="round" stroke-linejoin="round"/>
<path opacity="0.2" d="M1.10938 1125.68C111.002 1138.02 220.902 1150.37 330.803 1154.99" stroke="#031122" stroke-width="30.6667" stroke-miterlimit="10" stroke-linecap="round" stroke-linejoin="round"/>
<path d="M20.9688 1188.93C121.603 1192.02 222.229 1210.53 320.202 1235.22" stroke="#031122" stroke-width="30.6667" stroke-miterlimit="10" stroke-linecap="round" stroke-linejoin="round"/>
<path d="M1204.39 46.8275C1204.29 175.47 1204.19 304.113 1210.67 432.024" stroke="#031122" stroke-width="30.6666" stroke-miterlimit="10" stroke-linecap="round" stroke-linejoin="round"/>
<path d="M1152.25 75.8734C1159.17 192.887 1152.91 311.365 1141.14 427.358" stroke="#031122" stroke-width="30.6667" stroke-miterlimit="10" stroke-linecap="round" stroke-linejoin="round"/>
<path d="M1853.3 915.917C1744.54 937.994 1635.76 960.07 1528.74 989.586" stroke="#031122" stroke-width="30.6667" stroke-miterlimit="10" stroke-linecap="round" stroke-linejoin="round"/>
<path opacity="0.2" d="M1819.74 861.079C1722.02 889.216 1620.77 902.476 1520.69 908.969" stroke="#031122" stroke-width="30.6667" stroke-miterlimit="10" stroke-linecap="round" stroke-linejoin="round"/>
<path d="M496.919 289.433C430.712 207.667 306.256 287.891 332.738 397.428C349.947 473.023 495.593 506.965 520.749 423.654C533.991 380.457 531.195 326.283 449.188 331.451" stroke="#031122" stroke-width="30.6667" stroke-miterlimit="10" stroke-linecap="round" stroke-linejoin="round"/>
<path d="M783.14 755.215C748.347 712.249 681.285 783.134 695.201 840.694C704.253 880.419 780.784 898.255 793.996 854.479C800.955 831.776 799.496 803.308 756.406 806.021" stroke="#031122" stroke-width="30.6667" stroke-miterlimit="10" stroke-linecap="round" stroke-linejoin="round"/>
<path d="M479.123 1239.47C471.905 1351.56 606.65 1404.62 658.255 1307.99C694.573 1242.22 617.92 1093.98 548.151 1128.49C511.833 1146.2 479.374 1185.12 537.921 1252.22" stroke="#031122" stroke-width="30.6667" stroke-miterlimit="10" stroke-linecap="round" stroke-linejoin="round"/>
<path d="M1287.27 849.591C1232.57 782.028 1129.71 848.318 1151.59 938.831C1165.82 1001.3 1286.17 1029.34 1306.97 960.505C1317.91 924.809 1318.96 898.515 1251.21 902.785" stroke="#031122" stroke-width="30.6666" stroke-miterlimit="10" stroke-linecap="round" stroke-linejoin="round"/>
<path d="M823.856 232.493C870.202 158.44 937.723 275.69 846.377 283.403C797.384 286.49 728.519 203.18 777.525 158.44C800.019 138.384 845.045 156.897 866.235 170.781" stroke="#031122" stroke-width="30.6666" stroke-miterlimit="10" stroke-linecap="round" stroke-linejoin="round"/>
<path d="M118.236 968.695C164.582 894.641 232.104 1011.89 140.74 1019.61C91.7531 1022.69 22.9052 939.381 71.8907 894.641C94.4061 874.587 139.425 893.1 160.602 906.984" stroke="#031122" stroke-width="30.6667" stroke-miterlimit="10" stroke-linecap="round" stroke-linejoin="round"/>
<path d="M775.555 1255.91C811.856 1337.22 691.681 1355.49 726.417 1256.73C745.841 1204.24 840.524 1169.48 853.104 1240.51C858.495 1272.92 824.227 1311.66 804.126 1327.58" stroke="#031122" stroke-width="30.6668" stroke-miterlimit="10" stroke-linecap="round" stroke-linejoin="round"/>
<path d="M541.699 93.7865C576.118 87.6148 657.527 97.4834 626.431 130.813C595.347 164.141 559.542 129.883 541.699 158.582C523.844 187.282 558.908 201.779 586.718 207.951" stroke="#031122" stroke-width="30.6667" stroke-miterlimit="10" stroke-linecap="round" stroke-linejoin="round"/>
<path opacity="0.2" d="M843.672 677.318C878.089 671.148 959.502 681.016 928.407 714.344C897.327 747.675 861.513 713.414 843.672 742.116C825.817 770.814 860.88 785.312 888.69 791.484" stroke="#031122" stroke-width="30.6667" stroke-miterlimit="10" stroke-linecap="round" stroke-linejoin="round"/>
<path d="M111.769 142.651C146.187 136.481 227.596 146.351 196.5 179.678C165.416 213.009 129.611 178.749 111.769 207.45C93.9259 236.148 128.978 250.647 156.787 256.818" stroke="#031122" stroke-width="30.6667" stroke-miterlimit="10" stroke-linecap="round" stroke-linejoin="round"/>
<path d="M1572.56 411.249C1607 405.08 1688.4 414.947 1657.32 448.276C1626.22 481.606 1590.42 447.347 1572.56 476.046C1554.73 504.744 1589.77 519.242 1617.59 525.414" stroke="#031122" stroke-width="30.6665" stroke-miterlimit="10" stroke-linecap="round" stroke-linejoin="round"/>
<path d="M250.347 834.666C284.765 828.495 366.175 838.363 335.09 871.691C303.994 905.021 268.189 870.762 250.347 899.462C232.504 928.162 267.556 942.659 295.365 948.831" stroke="#031122" stroke-width="30.6667" stroke-miterlimit="10" stroke-linecap="round" stroke-linejoin="round"/>
<path d="M470.819 570.76C463.911 610.54 427.891 696.166 411.758 650.67C395.636 605.174 435.576 577.829 418.618 548.414C401.647 518.998 377.877 552.341 363.32 580.623" stroke="#031122" stroke-width="30.6667" stroke-miterlimit="10" stroke-linecap="round" stroke-linejoin="round"/>
<path d="M1108.36 1277.83C1079.78 1301.03 1002.97 1333.93 1018.28 1288.06C1033.6 1242.19 1078.69 1254.57 1083.88 1219.65C1089.05 1184.73 1052.1 1189.7 1024.79 1198.42" stroke="#031122" stroke-width="30.6667" stroke-miterlimit="10" stroke-linecap="round" stroke-linejoin="round"/>
<path d="M1062.55 156.35C1033.97 179.554 957.164 212.46 972.474 166.583C987.798 120.71 1032.89 133.098 1038.07 98.1757C1043.25 63.2518 1006.28 68.2212 978.984 76.9483" stroke="#031122" stroke-width="30.6666" stroke-miterlimit="10" stroke-linecap="round" stroke-linejoin="round"/>
<path d="M660.97 364.065C770.87 408.803 654.349 472.057 635.813 519.882C610.656 584.678 670.244 626.334 650.381 683.415C637.14 723.526 560.344 757.468 528.566 766.724" stroke="#031122" stroke-width="30.6667" stroke-miterlimit="10" stroke-linecap="round" stroke-linejoin="round"/>
<path d="M1501.08 1108.26C1386.85 1134.35 1473.66 1031.65 1468.93 979.465C1462.53 908.738 1379.71 958.256 1378.11 834.646C1376.49 711.036 1441.85 694.468 1491.23 688.897" stroke="#031122" stroke-width="30.6667" stroke-miterlimit="10" stroke-linecap="round" stroke-linejoin="round"/>
<path d="M172.929 556.91C40.5277 613.992 198.086 723.529 187.497 600.108" stroke="#031122" stroke-width="30.6667" stroke-miterlimit="10" stroke-linecap="round" stroke-linejoin="round"/>
<path opacity="0.2" d="M829.714 439.821C739.686 438.278 780.737 313.315 861.495 376.567" stroke="#031122" stroke-width="30.6667" stroke-miterlimit="10" stroke-linecap="round" stroke-linejoin="round"/>
<path opacity="0.2" d="M317.872 239.428C227.846 237.885 268.886 112.922 349.649 176.175" stroke="#031122" stroke-width="30.6667" stroke-miterlimit="10" stroke-linecap="round" stroke-linejoin="round"/>
<path d="M1533.62 839.934C1439.65 904.986 1413.96 745.348 1531.98 750.985" stroke="#031122" stroke-width="30.6666" stroke-miterlimit="10" stroke-linecap="round" stroke-linejoin="round"/>
<path d="M1188.55 571.994C1140.65 660.846 1070.32 555.081 1158.66 507.505" stroke="#031122" stroke-width="30.6668" stroke-miterlimit="10" stroke-linecap="round" stroke-linejoin="round"/>
<path d="M1383.13 1091.58C1335.24 1180.43 1264.9 1074.66 1353.24 1027.09" stroke="#031122" stroke-width="30.6667" stroke-miterlimit="10" stroke-linecap="round" stroke-linejoin="round"/>
<path opacity="0.2" d="M638.537 872.518C590.661 961.369 520.319 855.604 608.648 808.029" stroke="#031122" stroke-width="30.6667" stroke-miterlimit="10" stroke-linecap="round" stroke-linejoin="round"/>
<path d="M672.943 207.582C724.57 281.635 629.238 318.661 578.926 290.891" stroke="#031122" stroke-width="30.6667" stroke-miterlimit="10" stroke-linecap="round" stroke-linejoin="round"/>
<path d="M402.88 1240.32C454.52 1314.38 359.188 1351.4 308.875 1323.64" stroke="#031122" stroke-width="30.6667" stroke-miterlimit="10" stroke-linecap="round" stroke-linejoin="round"/>
<path d="M824.585 1066.06C754.241 1082.06 768.932 981.018 808.043 947.165" stroke="white" stroke-opacity="0.08" stroke-width="30.6667" stroke-miterlimit="10" stroke-linecap="round" stroke-linejoin="round"/>
<path d="M1256.31 528.879C1282.46 451.122 1347.75 519.763 1351.3 576.39" stroke="#031122" stroke-width="30.6667" stroke-miterlimit="10" stroke-linecap="round" stroke-linejoin="round"/>
<path d="M1120.76 1156.45C1096.71 1065.24 1197.02 1072.56 1234.72 1120.29" stroke="#031122" stroke-width="30.6665" stroke-miterlimit="10" stroke-linecap="round" stroke-linejoin="round"/>
<path d="M555.371 959.836C595.096 967.551 765.192 951.959 674.545 1001.49C583.886 1051.03 714.258 1158.85 757.95 1180.45" stroke="#031122" stroke-width="30.6667" stroke-miterlimit="10" stroke-linecap="round" stroke-linejoin="round"/>
<path d="M162.023 452.242C200.003 467.812 369.873 486.58 273.25 517.184C176.627 547.789 289.121 680.167 328.965 710.208" stroke="#031122" stroke-width="30.6667" stroke-miterlimit="10" stroke-linecap="round" stroke-linejoin="round"/>
<path d="M1276.06 590.895C1277.6 637.781 1305.8 801.834 1245.84 708.393C1185.88 614.957 1135.63 714.671 1126.31 768.897" stroke="#031122" stroke-width="30.6666" stroke-miterlimit="10" stroke-linecap="round" stroke-linejoin="round"/>
<path d="M1028.06 766.606C1127.73 778.986 1057.79 977.545 997.838 884.108C937.876 790.669 887.63 890.383 878.305 944.611" stroke="#031122" stroke-width="30.6668" stroke-miterlimit="10" stroke-linecap="round" stroke-linejoin="round"/>
<path d="M1353.28 393.781C1393.01 401.496 1563.1 385.905 1472.45 435.437C1381.8 484.971 1471.84 577.853 1568.52 583.215" stroke="#031122" stroke-width="30.6665" stroke-miterlimit="10" stroke-linecap="round" stroke-linejoin="round"/>
<path d="M388.824 744.618C406.045 741.531 474.226 712.29 478.862 732.512C483.499 752.738 433.186 761.377 428.549 781.598C423.912 801.82 463.637 783.913 468.931 798.569C474.226 813.225 420.542 858.735 426.505 874.936C432.469 891.134 468.931 857.419 482.173 855.875" stroke="#031122" stroke-width="30.6667" stroke-miterlimit="10" stroke-linecap="round" stroke-linejoin="round"/>
<path d="M1064.69 445.837C1051.94 459.664 1009.66 528.507 996.071 514.818C982.484 501.129 1019.92 461.026 1013.99 441.27C1008.07 421.511 983.868 462.335 972.398 453.684C960.955 445.03 983.394 372.231 970.66 362.736C957.914 353.241 944.028 405.01 933.82 414.958" stroke="#031122" stroke-width="30.6666" stroke-miterlimit="10" stroke-linecap="round" stroke-linejoin="round"/>
<path d="M1502.3 151.494C1516.88 140.387 1568.57 80.9008 1579.98 97.08C1591.38 113.257 1548.64 145.375 1551.6 166.017C1554.56 186.659 1584.37 151.213 1594.4 162.005C1604.42 172.797 1571.71 240.102 1582.87 251.981C1594.04 263.856 1615.28 215.584 1626.78 207.797" stroke="#031122" stroke-width="30.6665" stroke-miterlimit="10" stroke-linecap="round" stroke-linejoin="round"/>
<path opacity="0.2" d="M1181.01 1295.25C1178.35 1275.19 1153.27 1195.74 1170.61 1190.34C1187.98 1184.94 1195.39 1243.57 1212.75 1248.96C1230.1 1254.36 1214.73 1208.08 1227.31 1201.91C1239.89 1195.74 1278.93 1258.29 1292.86 1251.35C1306.75 1244.4 1277.82 1201.91 1276.49 1186.48" stroke="#031122" stroke-width="30.6667" stroke-miterlimit="10" stroke-linecap="round" stroke-linejoin="round"/>
<path d="M942.655 1224.23C977.651 1144.1 905.966 1189.53 897.136 1089.33C887.675 982.213 1006.55 968.92 1030.31 1063.3C1042.7 1112.51 1018.86 1134.98 981.844 1127.38" stroke="#031122" stroke-width="30.6668" stroke-miterlimit="10" stroke-linecap="round" stroke-linejoin="round"/>
<path opacity="0.2" d="M1281.5 169.089C1336.05 232.682 1321.2 139.205 1405.68 160.448C1496.02 183.155 1470.05 318.972 1385.67 316.053C1341.66 314.533 1330.73 281.163 1348.39 242.513" stroke="#031122" stroke-width="30.6667" stroke-miterlimit="10" stroke-linecap="round" stroke-linejoin="round"/>
<path d="M943.023 297.217C992.024 294.131 1043.66 291.045 1090 272.533" stroke="#031122" stroke-width="30.6666" stroke-miterlimit="10" stroke-linecap="round" stroke-linejoin="round"/>
<path d="M448.665 184.319C422.038 136.305 394.086 85.6141 357.289 47.9399" stroke="#031122" stroke-width="30.6667" stroke-miterlimit="10" stroke-linecap="round" stroke-linejoin="round"/>
<path d="M1663.37 1352.38C1636.74 1304.36 1608.8 1253.67 1572 1216" stroke="#031122" stroke-width="30.6668" stroke-miterlimit="10" stroke-linecap="round" stroke-linejoin="round"/>
<path opacity="0.2" d="M1615.99 844.927C1601.92 790.162 1587.24 732.397 1560.92 684.251" stroke="#031122" stroke-width="30.6667" stroke-miterlimit="10" stroke-linecap="round" stroke-linejoin="round"/>
<path opacity="0.2" d="M1294.87 433.513C1283.46 389.072 1295.63 338.13 1274.27 299.061" stroke="#031122" stroke-width="30.6667" stroke-miterlimit="10" stroke-linecap="round" stroke-linejoin="round"/>
<path d="M543.383 656.428C544.518 610.058 578.626 516.015 568.874 471.107" stroke="#031122" stroke-width="30.6667" stroke-miterlimit="10" stroke-linecap="round" stroke-linejoin="round"/>
<path d="M1532.66 628.559C1459.36 619.275 1402.39 629.651 1365.75 647.64" stroke="#031122" stroke-width="30.6665" stroke-miterlimit="10" stroke-linecap="round" stroke-linejoin="round"/>
<path d="M1520.27 317.206C1567.94 341.889 1646.07 332.633 1656.65 264.75" stroke="#031122" stroke-width="30.6668" stroke-miterlimit="10" stroke-linecap="round" stroke-linejoin="round"/>
<path d="M73.4766 710.586C93.7452 766.588 156.165 822.107 203.741 781.039" stroke="white" stroke-opacity="0.08" stroke-width="30.6667" stroke-miterlimit="10" stroke-linecap="round" stroke-linejoin="round"/>
<path d="M252.023 1047.08C299.683 1071.77 377.806 1062.51 388.394 994.629" stroke="#031122" stroke-width="30.6667" stroke-miterlimit="10" stroke-linecap="round" stroke-linejoin="round"/>
<path d="M1340 1290.17C1394.28 1291.71 1451.22 1297.88 1504.19 1284" stroke="#031122" stroke-width="30.6667" stroke-miterlimit="10" stroke-linecap="round" stroke-linejoin="round"/>
<path d="M1395.61 1338.34C1414.15 1338.34 1432.68 1338.34 1451.22 1338.34" stroke="#031122" stroke-width="30.6668" stroke-miterlimit="10" stroke-linecap="round" stroke-linejoin="round"/>
<path d="M71.7656 323.373C126.046 324.914 182.98 331.086 235.947 317.202" stroke="#031122" stroke-width="30.6667" stroke-miterlimit="10" stroke-linecap="round" stroke-linejoin="round"/>
<path opacity="0.2" d="M127.375 371.54C145.911 371.54 164.447 371.54 182.982 371.54" stroke="#031122" stroke-width="30.6667" stroke-miterlimit="10" stroke-linecap="round" stroke-linejoin="round"/>
<path d="M413.828 1124.64C441.77 1070.39 474.467 1015.73 490.242 955.205" stroke="#031122" stroke-width="30.6667" stroke-miterlimit="10" stroke-linecap="round" stroke-linejoin="round"/>
<path d="M477.223 1092.05C486.365 1073.27 495.52 1054.48 504.662 1035.7" stroke="#031122" stroke-width="30.6667" stroke-miterlimit="10" stroke-linecap="round" stroke-linejoin="round"/>
</g>
</g>
<g opacity="0.1">
<mask id="mask1_5234_20318" style="mask-type:luminance" maskUnits="userSpaceOnUse" x="0" y="1382" width="1719" height="1382">
<path d="M8.10444e-05 1382H1719V2764H8.10444e-05V1382Z" fill="white"/>
</mask>
<g mask="url(#mask1_5234_20318)">
<path d="M997.805 2232.18C887.905 2219.84 778.02 2207.5 668.12 2202.87" stroke="#031122" stroke-width="30.6665" stroke-miterlimit="10" stroke-linecap="round" stroke-linejoin="round"/>
<path d="M977.93 2168.93C877.312 2165.84 776.681 2147.33 678.694 2122.65" stroke="#031122" stroke-width="30.6666" stroke-miterlimit="10" stroke-linecap="round" stroke-linejoin="round"/>
<path opacity="0.2" d="M1717.89 1638.32C1608 1625.98 1498.1 1613.63 1388.2 1609.01" stroke="#031122" stroke-width="30.6667" stroke-miterlimit="10" stroke-linecap="round" stroke-linejoin="round"/>
<path d="M1698.03 1575.07C1597.4 1571.98 1496.77 1553.47 1398.8 1528.78" stroke="#031122" stroke-width="30.6667" stroke-miterlimit="10" stroke-linecap="round" stroke-linejoin="round"/>
<path d="M514.608 2717.17C514.708 2588.53 514.808 2459.89 508.33 2331.98" stroke="#031122" stroke-width="30.6666" stroke-miterlimit="10" stroke-linecap="round" stroke-linejoin="round"/>
<path d="M566.753 2688.13C559.83 2571.11 566.088 2452.63 577.863 2336.64" stroke="#031122" stroke-width="30.6667" stroke-miterlimit="10" stroke-linecap="round" stroke-linejoin="round"/>
<path d="M-134.301 1848.08C-25.5402 1826.01 83.2407 1803.93 190.258 1774.41" stroke="#031122" stroke-width="30.6667" stroke-miterlimit="10" stroke-linecap="round" stroke-linejoin="round"/>
<path opacity="0.2" d="M-100.74 1902.92C-3.01999 1874.78 98.2273 1861.52 198.309 1855.03" stroke="#031122" stroke-width="30.6667" stroke-miterlimit="10" stroke-linecap="round" stroke-linejoin="round"/>
<path d="M1222.08 2474.57C1288.29 2556.33 1412.74 2476.11 1386.26 2366.57C1369.05 2290.98 1223.41 2257.04 1198.25 2340.35C1185.01 2383.54 1187.81 2437.72 1269.81 2432.55" stroke="#031122" stroke-width="30.6667" stroke-miterlimit="10" stroke-linecap="round" stroke-linejoin="round"/>
<path d="M935.86 2008.79C970.653 2051.75 1037.72 1980.87 1023.8 1923.31C1014.75 1883.58 938.216 1865.74 925.004 1909.52C918.045 1932.22 919.504 1960.69 962.594 1957.98" stroke="#031122" stroke-width="30.6667" stroke-miterlimit="10" stroke-linecap="round" stroke-linejoin="round"/>
<path d="M1239.88 1524.53C1247.1 1412.44 1112.35 1359.38 1060.75 1456.01C1024.43 1521.78 1101.08 1670.02 1170.85 1635.51C1207.17 1617.8 1239.63 1578.88 1181.08 1511.78" stroke="#031122" stroke-width="30.6667" stroke-miterlimit="10" stroke-linecap="round" stroke-linejoin="round"/>
<path d="M431.726 1914.41C486.435 1981.97 589.29 1915.68 567.406 1825.17C553.182 1762.7 432.832 1734.66 412.034 1803.5C401.092 1839.19 400.036 1865.48 467.79 1861.22" stroke="#031122" stroke-width="30.6666" stroke-miterlimit="10" stroke-linecap="round" stroke-linejoin="round"/>
<path d="M895.144 2531.51C848.798 2605.56 781.277 2488.31 872.623 2480.6C921.616 2477.51 990.481 2560.82 941.475 2605.56C918.981 2625.62 873.955 2607.1 852.765 2593.22" stroke="#031122" stroke-width="30.6666" stroke-miterlimit="10" stroke-linecap="round" stroke-linejoin="round"/>
<path d="M1600.76 1795.31C1554.42 1869.36 1486.9 1752.11 1578.26 1744.39C1627.25 1741.31 1696.09 1824.62 1647.11 1869.36C1624.59 1889.41 1579.58 1870.9 1558.4 1857.02" stroke="#031122" stroke-width="30.6667" stroke-miterlimit="10" stroke-linecap="round" stroke-linejoin="round"/>
<path d="M943.445 1508.09C907.144 1426.78 1027.32 1408.51 992.583 1507.27C973.159 1559.76 878.476 1594.52 865.896 1523.49C860.505 1491.08 894.773 1452.34 914.874 1436.42" stroke="#031122" stroke-width="30.6668" stroke-miterlimit="10" stroke-linecap="round" stroke-linejoin="round"/>
<path d="M1177.3 2670.21C1142.88 2676.39 1061.47 2666.52 1092.57 2633.19C1123.65 2599.86 1159.46 2634.12 1177.3 2605.42C1195.16 2576.72 1160.09 2562.22 1132.28 2556.05" stroke="#031122" stroke-width="30.6667" stroke-miterlimit="10" stroke-linecap="round" stroke-linejoin="round"/>
<path opacity="0.2" d="M875.328 2086.68C840.911 2092.85 759.498 2082.98 790.593 2049.66C821.673 2016.33 857.487 2050.59 875.328 2021.88C893.183 1993.19 858.12 1978.69 830.31 1972.52" stroke="#031122" stroke-width="30.6667" stroke-miterlimit="10" stroke-linecap="round" stroke-linejoin="round"/>
<path d="M1607.23 2621.35C1572.81 2627.52 1491.4 2617.65 1522.5 2584.32C1553.58 2550.99 1589.39 2585.25 1607.23 2556.55C1625.07 2527.85 1590.02 2513.35 1562.21 2507.18" stroke="#031122" stroke-width="30.6667" stroke-miterlimit="10" stroke-linecap="round" stroke-linejoin="round"/>
<path d="M146.44 2352.75C112 2358.92 30.604 2349.05 61.6757 2315.72C92.7773 2282.39 128.583 2316.65 146.44 2287.95C164.268 2259.26 129.23 2244.76 101.407 2238.59" stroke="#031122" stroke-width="30.6665" stroke-miterlimit="10" stroke-linecap="round" stroke-linejoin="round"/>
<path d="M1468.65 1929.33C1434.23 1935.5 1352.83 1925.64 1383.91 1892.31C1415.01 1858.98 1450.81 1893.24 1468.65 1864.54C1486.5 1835.84 1451.44 1821.34 1423.63 1815.17" stroke="#031122" stroke-width="30.6667" stroke-miterlimit="10" stroke-linecap="round" stroke-linejoin="round"/>
<path d="M1248.18 2193.24C1255.09 2153.46 1291.11 2067.83 1307.24 2113.33C1323.36 2158.83 1283.42 2186.17 1300.38 2215.59C1317.35 2245 1341.12 2211.66 1355.68 2183.38" stroke="#031122" stroke-width="30.6667" stroke-miterlimit="10" stroke-linecap="round" stroke-linejoin="round"/>
<path d="M610.636 1486.17C639.22 1462.97 716.031 1430.07 700.721 1475.94C685.398 1521.81 640.314 1509.43 635.123 1544.35C629.946 1579.27 666.904 1574.3 694.215 1565.58" stroke="#031122" stroke-width="30.6667" stroke-miterlimit="10" stroke-linecap="round" stroke-linejoin="round"/>
<path d="M656.453 2607.65C685.026 2584.45 761.836 2551.54 746.526 2597.42C731.202 2643.29 686.111 2630.9 680.931 2665.82C675.75 2700.75 712.718 2695.78 740.016 2687.05" stroke="#031122" stroke-width="30.6666" stroke-miterlimit="10" stroke-linecap="round" stroke-linejoin="round"/>
<path d="M1058.03 2399.93C948.13 2355.2 1064.65 2291.94 1083.19 2244.12C1108.34 2179.32 1048.76 2137.67 1068.62 2080.58C1081.86 2040.47 1158.66 2006.53 1190.43 1997.28" stroke="#031122" stroke-width="30.6667" stroke-miterlimit="10" stroke-linecap="round" stroke-linejoin="round"/>
<path d="M217.921 1655.74C332.153 1629.65 245.335 1732.35 250.069 1784.54C256.467 1855.26 339.288 1805.74 340.893 1929.35C342.507 2052.96 277.155 2069.53 227.767 2075.1" stroke="#031122" stroke-width="30.6667" stroke-miterlimit="10" stroke-linecap="round" stroke-linejoin="round"/>
<path d="M1546.07 2207.09C1678.47 2150.01 1520.91 2040.47 1531.5 2163.89" stroke="#031122" stroke-width="30.6667" stroke-miterlimit="10" stroke-linecap="round" stroke-linejoin="round"/>
<path opacity="0.2" d="M889.286 2324.18C979.314 2325.72 938.263 2450.69 857.505 2387.43" stroke="#031122" stroke-width="30.6667" stroke-miterlimit="10" stroke-linecap="round" stroke-linejoin="round"/>
<path opacity="0.2" d="M1401.13 2524.57C1491.15 2526.11 1450.11 2651.08 1369.35 2587.82" stroke="#031122" stroke-width="30.6667" stroke-miterlimit="10" stroke-linecap="round" stroke-linejoin="round"/>
<path d="M185.382 1924.07C279.355 1859.01 305.035 2018.65 187.016 2013.01" stroke="#031122" stroke-width="30.6666" stroke-miterlimit="10" stroke-linecap="round" stroke-linejoin="round"/>
<path d="M530.455 2192.01C578.347 2103.15 648.685 2208.92 560.341 2256.49" stroke="#031122" stroke-width="30.6668" stroke-miterlimit="10" stroke-linecap="round" stroke-linejoin="round"/>
<path d="M335.872 1672.42C383.755 1583.57 454.1 1689.34 365.758 1736.91" stroke="#031122" stroke-width="30.6667" stroke-miterlimit="10" stroke-linecap="round" stroke-linejoin="round"/>
<path opacity="0.2" d="M1080.46 1891.48C1128.34 1802.63 1198.68 1908.4 1110.35 1955.97" stroke="#031122" stroke-width="30.6667" stroke-miterlimit="10" stroke-linecap="round" stroke-linejoin="round"/>
<path d="M1046.06 2556.42C994.43 2482.37 1089.76 2445.34 1140.07 2473.11" stroke="#031122" stroke-width="30.6667" stroke-miterlimit="10" stroke-linecap="round" stroke-linejoin="round"/>
<path d="M1316.12 1523.68C1264.48 1449.62 1359.81 1412.6 1410.12 1440.36" stroke="#031122" stroke-width="30.6667" stroke-miterlimit="10" stroke-linecap="round" stroke-linejoin="round"/>
<path d="M894.415 1697.94C964.759 1681.94 950.068 1782.98 910.957 1816.84" stroke="white" stroke-opacity="0.08" stroke-width="30.6667" stroke-miterlimit="10" stroke-linecap="round" stroke-linejoin="round"/>
<path d="M462.688 2235.12C436.539 2312.88 371.246 2244.24 367.699 2187.61" stroke="#031122" stroke-width="30.6667" stroke-miterlimit="10" stroke-linecap="round" stroke-linejoin="round"/>
<path d="M598.244 1607.55C622.289 1698.76 521.982 1691.44 484.283 1643.71" stroke="#031122" stroke-width="30.6665" stroke-miterlimit="10" stroke-linecap="round" stroke-linejoin="round"/>
<path d="M1163.63 1804.16C1123.9 1796.45 953.808 1812.04 1044.46 1762.51C1135.11 1712.97 1004.74 1605.15 961.05 1583.55" stroke="#031122" stroke-width="30.6667" stroke-miterlimit="10" stroke-linecap="round" stroke-linejoin="round"/>
<path d="M1556.98 2311.76C1519 2296.19 1349.13 2277.42 1445.75 2246.82C1542.37 2216.21 1429.88 2083.83 1390.03 2053.79" stroke="#031122" stroke-width="30.6667" stroke-miterlimit="10" stroke-linecap="round" stroke-linejoin="round"/>
<path d="M442.938 2173.11C441.404 2126.22 413.202 1962.17 473.163 2055.61C533.124 2149.04 583.37 2049.33 592.688 1995.1" stroke="#031122" stroke-width="30.6666" stroke-miterlimit="10" stroke-linecap="round" stroke-linejoin="round"/>
<path d="M690.936 1997.39C591.268 1985.01 661.213 1786.45 721.162 1879.89C781.124 1973.33 831.37 1873.62 840.695 1819.39" stroke="#031122" stroke-width="30.6668" stroke-miterlimit="10" stroke-linecap="round" stroke-linejoin="round"/>
<path d="M365.719 2370.22C325.987 2362.5 155.9 2378.09 246.554 2328.56C337.198 2279.03 247.162 2186.15 150.479 2180.79" stroke="#031122" stroke-width="30.6665" stroke-miterlimit="10" stroke-linecap="round" stroke-linejoin="round"/>
<path d="M1330.18 2019.38C1312.95 2022.47 1244.77 2051.71 1240.14 2031.49C1235.5 2011.26 1285.81 2002.62 1290.45 1982.4C1295.09 1962.18 1255.36 1980.09 1250.07 1965.43C1244.77 1950.78 1298.46 1905.26 1292.5 1889.06C1286.53 1872.87 1250.07 1906.58 1236.83 1908.12" stroke="#031122" stroke-width="30.6667" stroke-miterlimit="10" stroke-linecap="round" stroke-linejoin="round"/>
<path d="M654.311 2318.16C667.057 2304.34 709.341 2235.49 722.929 2249.18C736.516 2262.87 699.079 2302.97 705.01 2322.73C710.928 2342.49 735.132 2301.66 746.602 2310.32C758.045 2318.97 735.606 2391.77 748.34 2401.26C761.086 2410.76 774.972 2358.99 785.18 2349.04" stroke="#031122" stroke-width="30.6666" stroke-miterlimit="10" stroke-linecap="round" stroke-linejoin="round"/>
<path d="M216.703 2612.51C202.124 2623.61 150.434 2683.1 139.024 2666.92C127.624 2650.74 170.365 2618.62 167.405 2597.98C164.435 2577.34 134.629 2612.79 124.604 2602C114.579 2591.2 147.295 2523.9 136.134 2512.02C124.963 2500.14 103.717 2548.42 92.2168 2556.2" stroke="#031122" stroke-width="30.6665" stroke-miterlimit="10" stroke-linecap="round" stroke-linejoin="round"/>
<path opacity="0.2" d="M537.995 1468.75C540.645 1488.81 565.728 1568.26 548.388 1573.66C531.019 1579.06 523.615 1520.43 506.245 1515.04C488.896 1509.64 504.272 1555.92 491.686 1562.09C479.11 1568.26 440.066 1505.71 426.144 1512.65C412.253 1519.6 441.182 1562.09 442.507 1577.52" stroke="#031122" stroke-width="30.6667" stroke-miterlimit="10" stroke-linecap="round" stroke-linejoin="round"/>
<path d="M776.345 1539.77C741.349 1619.9 813.034 1574.47 821.864 1674.67C831.325 1781.79 712.454 1795.08 688.694 1700.7C676.303 1651.49 700.144 1629.02 737.156 1636.62" stroke="#031122" stroke-width="30.6668" stroke-miterlimit="10" stroke-linecap="round" stroke-linejoin="round"/>
<path opacity="0.2" d="M437.496 2594.91C382.946 2531.32 397.804 2624.8 313.319 2603.55C222.983 2580.85 248.953 2445.03 333.329 2447.95C377.336 2449.47 388.268 2482.84 370.609 2521.49" stroke="#031122" stroke-width="30.6667" stroke-miterlimit="10" stroke-linecap="round" stroke-linejoin="round"/>
<path d="M775.977 2466.78C726.976 2469.87 675.339 2472.96 629.002 2491.47" stroke="#031122" stroke-width="30.6666" stroke-miterlimit="10" stroke-linecap="round" stroke-linejoin="round"/>
<path d="M1270.34 2579.68C1296.96 2627.69 1324.91 2678.39 1361.71 2716.06" stroke="#031122" stroke-width="30.6667" stroke-miterlimit="10" stroke-linecap="round" stroke-linejoin="round"/>
<path d="M80.9566 1538.97C107.584 1586.99 135.526 1637.68 172.328 1675.35" stroke="#031122" stroke-width="30.6668" stroke-miterlimit="10" stroke-linecap="round" stroke-linejoin="round"/>
<path opacity="0.2" d="M103.01 1919.07C117.081 1973.84 131.76 2031.6 158.078 2079.75" stroke="#031122" stroke-width="30.6667" stroke-miterlimit="10" stroke-linecap="round" stroke-linejoin="round"/>
<path opacity="0.2" d="M424.132 2330.49C435.542 2374.93 423.375 2425.87 444.73 2464.94" stroke="#031122" stroke-width="30.6667" stroke-miterlimit="10" stroke-linecap="round" stroke-linejoin="round"/>
<path d="M1175.62 2107.57C1174.48 2153.94 1140.37 2247.98 1150.13 2292.89" stroke="#031122" stroke-width="30.6667" stroke-miterlimit="10" stroke-linecap="round" stroke-linejoin="round"/>
<path d="M186.342 2135.44C259.636 2144.73 316.608 2134.35 353.25 2116.36" stroke="#031122" stroke-width="30.6665" stroke-miterlimit="10" stroke-linecap="round" stroke-linejoin="round"/>
<path d="M198.727 2446.79C151.063 2422.11 72.9349 2431.37 62.3518 2499.25" stroke="#031122" stroke-width="30.6668" stroke-miterlimit="10" stroke-linecap="round" stroke-linejoin="round"/>
<path d="M1645.52 2053.41C1625.25 1997.41 1562.84 1941.89 1515.26 1982.96" stroke="white" stroke-opacity="0.08" stroke-width="30.6667" stroke-miterlimit="10" stroke-linecap="round" stroke-linejoin="round"/>
<path d="M1466.98 1716.92C1419.32 1692.23 1341.19 1701.49 1330.61 1769.37" stroke="#031122" stroke-width="30.6667" stroke-miterlimit="10" stroke-linecap="round" stroke-linejoin="round"/>
<path d="M338.43 1549.49C284.149 1547.95 227.207 1541.78 174.242 1555.66" stroke="#031122" stroke-width="30.6667" stroke-miterlimit="10" stroke-linecap="round" stroke-linejoin="round"/>
<path d="M282.824 1501.32C264.279 1501.32 245.753 1501.32 227.208 1501.32" stroke="#031122" stroke-width="30.6668" stroke-miterlimit="10" stroke-linecap="round" stroke-linejoin="round"/>
<path d="M1647.23 2440.63C1592.95 2439.09 1536.02 2432.91 1483.05 2446.8" stroke="#031122" stroke-width="30.6667" stroke-miterlimit="10" stroke-linecap="round" stroke-linejoin="round"/>
<path opacity="0.2" d="M1591.62 2392.46C1573.09 2392.46 1554.55 2392.46 1536.02 2392.46" stroke="#031122" stroke-width="30.6667" stroke-miterlimit="10" stroke-linecap="round" stroke-linejoin="round"/>
<path d="M1305.17 1639.36C1277.23 1693.61 1244.53 1748.27 1228.76 1808.79" stroke="#031122" stroke-width="30.6667" stroke-miterlimit="10" stroke-linecap="round" stroke-linejoin="round"/>
<path d="M1241.78 1671.95C1232.64 1690.73 1223.48 1709.52 1214.34 1728.3" stroke="#031122" stroke-width="30.6667" stroke-miterlimit="10" stroke-linecap="round" stroke-linejoin="round"/>
</g>
</g>
<g opacity="0.1">
<mask id="mask2_5234_20318" style="mask-type:luminance" maskUnits="userSpaceOnUse" x="1719" y="0" width="1719" height="1382">
<path d="M3438 1382H1719V0H3438V1382Z" fill="white"/>
</mask>
<g mask="url(#mask2_5234_20318)">
<path d="M2440.2 531.82C2550.1 544.163 2659.98 556.504 2769.88 561.134" stroke="#031122" stroke-width="30.6665" stroke-miterlimit="10" stroke-linecap="round" stroke-linejoin="round"/>
<path d="M2460.07 595.071C2560.69 598.157 2661.32 616.67 2759.31 641.354" stroke="#031122" stroke-width="30.6666" stroke-miterlimit="10" stroke-linecap="round" stroke-linejoin="round"/>
<path opacity="0.2" d="M1720.11 1125.68C1830 1138.02 1939.9 1150.37 2049.8 1154.99" stroke="#031122" stroke-width="30.6667" stroke-miterlimit="10" stroke-linecap="round" stroke-linejoin="round"/>
<path d="M1739.97 1188.93C1840.6 1192.02 1941.23 1210.53 2039.2 1235.22" stroke="#031122" stroke-width="30.6667" stroke-miterlimit="10" stroke-linecap="round" stroke-linejoin="round"/>
<path d="M2923.39 46.8275C2923.29 175.47 2923.19 304.113 2929.67 432.024" stroke="#031122" stroke-width="30.6666" stroke-miterlimit="10" stroke-linecap="round" stroke-linejoin="round"/>
<path d="M2871.25 75.8734C2878.17 192.887 2871.91 311.365 2860.14 427.358" stroke="#031122" stroke-width="30.6667" stroke-miterlimit="10" stroke-linecap="round" stroke-linejoin="round"/>
<path d="M3572.3 915.917C3463.54 937.994 3354.76 960.07 3247.74 989.586" stroke="#031122" stroke-width="30.6667" stroke-miterlimit="10" stroke-linecap="round" stroke-linejoin="round"/>
<path opacity="0.2" d="M3538.74 861.079C3441.02 889.216 3339.77 902.476 3239.69 908.969" stroke="#031122" stroke-width="30.6667" stroke-miterlimit="10" stroke-linecap="round" stroke-linejoin="round"/>
<path d="M2215.92 289.433C2149.71 207.667 2025.26 287.891 2051.74 397.428C2068.95 473.023 2214.59 506.965 2239.75 423.654C2252.99 380.457 2250.19 326.283 2168.19 331.451" stroke="#031122" stroke-width="30.6667" stroke-miterlimit="10" stroke-linecap="round" stroke-linejoin="round"/>
<path d="M2502.14 755.215C2467.35 712.249 2400.28 783.134 2414.2 840.694C2423.25 880.419 2499.78 898.255 2513 854.479C2519.95 831.776 2518.5 803.308 2475.41 806.021" stroke="#031122" stroke-width="30.6667" stroke-miterlimit="10" stroke-linecap="round" stroke-linejoin="round"/>
<path d="M2198.12 1239.47C2190.9 1351.56 2325.65 1404.62 2377.25 1307.99C2413.57 1242.22 2336.92 1093.98 2267.15 1128.49C2230.83 1146.2 2198.37 1185.12 2256.92 1252.22" stroke="#031122" stroke-width="30.6667" stroke-miterlimit="10" stroke-linecap="round" stroke-linejoin="round"/>
<path d="M3006.27 849.591C2951.57 782.028 2848.71 848.318 2870.59 938.831C2884.82 1001.3 3005.17 1029.34 3025.97 960.505C3036.91 924.809 3037.96 898.515 2970.21 902.785" stroke="#031122" stroke-width="30.6666" stroke-miterlimit="10" stroke-linecap="round" stroke-linejoin="round"/>
<path d="M2542.86 232.493C2589.2 158.44 2656.72 275.69 2565.38 283.403C2516.38 286.49 2447.52 203.18 2496.52 158.44C2519.02 138.384 2564.05 156.897 2585.23 170.781" stroke="#031122" stroke-width="30.6666" stroke-miterlimit="10" stroke-linecap="round" stroke-linejoin="round"/>
<path d="M1837.24 968.695C1883.58 894.641 1951.1 1011.89 1859.74 1019.61C1810.75 1022.69 1741.91 939.381 1790.89 894.641C1813.41 874.587 1858.42 893.1 1879.6 906.984" stroke="#031122" stroke-width="30.6667" stroke-miterlimit="10" stroke-linecap="round" stroke-linejoin="round"/>
<path d="M2494.56 1255.91C2530.86 1337.22 2410.68 1355.49 2445.42 1256.73C2464.84 1204.24 2559.52 1169.48 2572.1 1240.51C2577.5 1272.92 2543.23 1311.66 2523.13 1327.58" stroke="#031122" stroke-width="30.6668" stroke-miterlimit="10" stroke-linecap="round" stroke-linejoin="round"/>
<path d="M2260.7 93.7865C2295.12 87.6148 2376.53 97.4834 2345.43 130.813C2314.35 164.141 2278.54 129.883 2260.7 158.582C2242.84 187.282 2277.91 201.779 2305.72 207.951" stroke="#031122" stroke-width="30.6667" stroke-miterlimit="10" stroke-linecap="round" stroke-linejoin="round"/>
<path opacity="0.2" d="M2562.67 677.318C2597.09 671.148 2678.5 681.016 2647.41 714.344C2616.33 747.675 2580.51 713.414 2562.67 742.116C2544.82 770.814 2579.88 785.312 2607.69 791.484" stroke="#031122" stroke-width="30.6667" stroke-miterlimit="10" stroke-linecap="round" stroke-linejoin="round"/>
<path d="M1830.77 142.651C1865.19 136.481 1946.6 146.351 1915.5 179.678C1884.42 213.009 1848.61 178.749 1830.77 207.45C1812.93 236.148 1847.98 250.647 1875.79 256.818" stroke="#031122" stroke-width="30.6667" stroke-miterlimit="10" stroke-linecap="round" stroke-linejoin="round"/>
<path d="M3291.56 411.249C3326 405.08 3407.4 414.947 3376.32 448.276C3345.22 481.606 3309.42 447.347 3291.56 476.046C3273.73 504.744 3308.77 519.242 3336.59 525.414" stroke="#031122" stroke-width="30.6665" stroke-miterlimit="10" stroke-linecap="round" stroke-linejoin="round"/>
<path d="M1969.35 834.666C2003.77 828.495 2085.17 838.363 2054.09 871.691C2022.99 905.021 1987.19 870.762 1969.35 899.462C1951.5 928.162 1986.56 942.659 2014.37 948.831" stroke="#031122" stroke-width="30.6667" stroke-miterlimit="10" stroke-linecap="round" stroke-linejoin="round"/>
<path d="M2189.82 570.76C2182.91 610.54 2146.89 696.166 2130.76 650.67C2114.64 605.174 2154.58 577.829 2137.62 548.414C2120.65 518.998 2096.88 552.341 2082.32 580.623" stroke="#031122" stroke-width="30.6667" stroke-miterlimit="10" stroke-linecap="round" stroke-linejoin="round"/>
<path d="M2827.36 1277.83C2798.78 1301.03 2721.97 1333.93 2737.28 1288.06C2752.6 1242.19 2797.69 1254.57 2802.88 1219.65C2808.05 1184.73 2771.1 1189.7 2743.79 1198.42" stroke="#031122" stroke-width="30.6667" stroke-miterlimit="10" stroke-linecap="round" stroke-linejoin="round"/>
<path d="M2781.55 156.35C2752.97 179.554 2676.16 212.46 2691.47 166.583C2706.8 120.71 2751.89 133.098 2757.07 98.1757C2762.25 63.2518 2725.28 68.2212 2697.98 76.9483" stroke="#031122" stroke-width="30.6666" stroke-miterlimit="10" stroke-linecap="round" stroke-linejoin="round"/>
<path d="M2379.97 364.065C2489.87 408.803 2373.35 472.057 2354.81 519.882C2329.66 584.678 2389.24 626.334 2369.38 683.415C2356.14 723.526 2279.34 757.468 2247.57 766.724" stroke="#031122" stroke-width="30.6667" stroke-miterlimit="10" stroke-linecap="round" stroke-linejoin="round"/>
<path d="M3220.08 1108.26C3105.85 1134.35 3192.66 1031.65 3187.93 979.465C3181.53 908.738 3098.71 958.256 3097.11 834.646C3095.49 711.036 3160.85 694.468 3210.23 688.897" stroke="#031122" stroke-width="30.6667" stroke-miterlimit="10" stroke-linecap="round" stroke-linejoin="round"/>
<path d="M1891.93 556.91C1759.53 613.992 1917.09 723.529 1906.5 600.108" stroke="#031122" stroke-width="30.6667" stroke-miterlimit="10" stroke-linecap="round" stroke-linejoin="round"/>
<path opacity="0.2" d="M2548.71 439.821C2458.69 438.278 2499.74 313.315 2580.5 376.567" stroke="#031122" stroke-width="30.6667" stroke-miterlimit="10" stroke-linecap="round" stroke-linejoin="round"/>
<path opacity="0.2" d="M2036.87 239.428C1946.85 237.885 1987.89 112.922 2068.65 176.175" stroke="#031122" stroke-width="30.6667" stroke-miterlimit="10" stroke-linecap="round" stroke-linejoin="round"/>
<path d="M3252.62 839.934C3158.65 904.986 3132.96 745.348 3250.98 750.985" stroke="#031122" stroke-width="30.6666" stroke-miterlimit="10" stroke-linecap="round" stroke-linejoin="round"/>
<path d="M2907.55 571.994C2859.65 660.846 2789.32 555.081 2877.66 507.505" stroke="#031122" stroke-width="30.6668" stroke-miterlimit="10" stroke-linecap="round" stroke-linejoin="round"/>
<path d="M3102.13 1091.58C3054.24 1180.43 2983.9 1074.66 3072.24 1027.09" stroke="#031122" stroke-width="30.6667" stroke-miterlimit="10" stroke-linecap="round" stroke-linejoin="round"/>
<path opacity="0.2" d="M2357.54 872.518C2309.66 961.369 2239.32 855.604 2327.65 808.029" stroke="#031122" stroke-width="30.6667" stroke-miterlimit="10" stroke-linecap="round" stroke-linejoin="round"/>
<path d="M2391.94 207.582C2443.57 281.635 2348.24 318.661 2297.93 290.891" stroke="#031122" stroke-width="30.6667" stroke-miterlimit="10" stroke-linecap="round" stroke-linejoin="round"/>
<path d="M2121.88 1240.32C2173.52 1314.38 2078.19 1351.4 2027.88 1323.64" stroke="#031122" stroke-width="30.6667" stroke-miterlimit="10" stroke-linecap="round" stroke-linejoin="round"/>
<path d="M2543.59 1066.06C2473.24 1082.06 2487.93 981.018 2527.04 947.165" stroke="white" stroke-opacity="0.08" stroke-width="30.6667" stroke-miterlimit="10" stroke-linecap="round" stroke-linejoin="round"/>
<path d="M2975.31 528.879C3001.46 451.122 3066.75 519.763 3070.3 576.39" stroke="#031122" stroke-width="30.6667" stroke-miterlimit="10" stroke-linecap="round" stroke-linejoin="round"/>
<path d="M2839.76 1156.45C2815.71 1065.24 2916.02 1072.56 2953.72 1120.29" stroke="#031122" stroke-width="30.6665" stroke-miterlimit="10" stroke-linecap="round" stroke-linejoin="round"/>
<path d="M2274.37 959.836C2314.1 967.551 2484.19 951.959 2393.54 1001.49C2302.89 1051.03 2433.26 1158.85 2476.95 1180.45" stroke="#031122" stroke-width="30.6667" stroke-miterlimit="10" stroke-linecap="round" stroke-linejoin="round"/>
<path d="M1881.02 452.242C1919 467.812 2088.87 486.58 1992.25 517.184C1895.63 547.789 2008.12 680.167 2047.97 710.208" stroke="#031122" stroke-width="30.6667" stroke-miterlimit="10" stroke-linecap="round" stroke-linejoin="round"/>
<path d="M2995.06 590.895C2996.6 637.781 3024.8 801.834 2964.84 708.393C2904.88 614.957 2854.63 714.671 2845.31 768.897" stroke="#031122" stroke-width="30.6666" stroke-miterlimit="10" stroke-linecap="round" stroke-linejoin="round"/>
<path d="M2747.06 766.606C2846.73 778.986 2776.79 977.545 2716.84 884.108C2656.88 790.669 2606.63 890.383 2597.3 944.611" stroke="#031122" stroke-width="30.6668" stroke-miterlimit="10" stroke-linecap="round" stroke-linejoin="round"/>
<path d="M3072.28 393.781C3112.01 401.496 3282.1 385.905 3191.45 435.437C3100.8 484.971 3190.84 577.853 3287.52 583.215" stroke="#031122" stroke-width="30.6665" stroke-miterlimit="10" stroke-linecap="round" stroke-linejoin="round"/>
<path d="M2107.82 744.618C2125.05 741.531 2193.23 712.29 2197.86 732.512C2202.5 752.738 2152.19 761.377 2147.55 781.598C2142.91 801.82 2182.64 783.913 2187.93 798.569C2193.23 813.225 2139.54 858.735 2145.5 874.936C2151.47 891.134 2187.93 857.419 2201.17 855.875" stroke="#031122" stroke-width="30.6667" stroke-miterlimit="10" stroke-linecap="round" stroke-linejoin="round"/>
<path d="M2783.69 445.837C2770.94 459.664 2728.66 528.507 2715.07 514.818C2701.48 501.129 2738.92 461.026 2732.99 441.27C2727.07 421.511 2702.87 462.335 2691.4 453.684C2679.95 445.03 2702.39 372.231 2689.66 362.736C2676.91 353.241 2663.03 405.01 2652.82 414.958" stroke="#031122" stroke-width="30.6666" stroke-miterlimit="10" stroke-linecap="round" stroke-linejoin="round"/>
<path d="M3221.3 151.494C3235.88 140.387 3287.57 80.9008 3298.98 97.08C3310.38 113.257 3267.64 145.375 3270.6 166.017C3273.56 186.659 3303.37 151.213 3313.4 162.005C3323.42 172.797 3290.71 240.102 3301.87 251.981C3313.04 263.856 3334.28 215.584 3345.78 207.797" stroke="#031122" stroke-width="30.6665" stroke-miterlimit="10" stroke-linecap="round" stroke-linejoin="round"/>
<path opacity="0.2" d="M2900.01 1295.25C2897.35 1275.19 2872.27 1195.74 2889.61 1190.34C2906.98 1184.94 2914.39 1243.57 2931.75 1248.96C2949.1 1254.36 2933.73 1208.08 2946.31 1201.91C2958.89 1195.74 2997.93 1258.29 3011.86 1251.35C3025.75 1244.4 2996.82 1201.91 2995.49 1186.48" stroke="#031122" stroke-width="30.6667" stroke-miterlimit="10" stroke-linecap="round" stroke-linejoin="round"/>
<path d="M2661.65 1224.23C2696.65 1144.1 2624.97 1189.53 2616.14 1089.33C2606.68 982.213 2725.55 968.92 2749.31 1063.3C2761.7 1112.51 2737.86 1134.98 2700.84 1127.38" stroke="#031122" stroke-width="30.6668" stroke-miterlimit="10" stroke-linecap="round" stroke-linejoin="round"/>
<path opacity="0.2" d="M3000.5 169.089C3055.05 232.682 3040.2 139.205 3124.68 160.448C3215.02 183.155 3189.05 318.972 3104.67 316.053C3060.66 314.533 3049.73 281.163 3067.39 242.513" stroke="#031122" stroke-width="30.6667" stroke-miterlimit="10" stroke-linecap="round" stroke-linejoin="round"/>
<path d="M2662.02 297.217C2711.02 294.131 2762.66 291.045 2809 272.533" stroke="#031122" stroke-width="30.6666" stroke-miterlimit="10" stroke-linecap="round" stroke-linejoin="round"/>
<path d="M2167.66 184.319C2141.04 136.305 2113.09 85.6141 2076.29 47.9399" stroke="#031122" stroke-width="30.6667" stroke-miterlimit="10" stroke-linecap="round" stroke-linejoin="round"/>
<path d="M3357.04 1225.03C3330.42 1177.01 3302.47 1126.32 3265.67 1088.65" stroke="#031122" stroke-width="30.6668" stroke-miterlimit="10" stroke-linecap="round" stroke-linejoin="round"/>
<path opacity="0.2" d="M3334.99 844.927C3320.92 790.162 3306.24 732.397 3279.92 684.251" stroke="#031122" stroke-width="30.6667" stroke-miterlimit="10" stroke-linecap="round" stroke-linejoin="round"/>
<path opacity="0.2" d="M3013.87 433.513C3002.46 389.072 3014.63 338.13 2993.27 299.061" stroke="#031122" stroke-width="30.6667" stroke-miterlimit="10" stroke-linecap="round" stroke-linejoin="round"/>
<path d="M2262.38 656.428C2263.52 610.058 2297.63 516.015 2287.87 471.107" stroke="#031122" stroke-width="30.6667" stroke-miterlimit="10" stroke-linecap="round" stroke-linejoin="round"/>
<path d="M3251.66 628.559C3178.36 619.275 3121.39 629.651 3084.75 647.64" stroke="#031122" stroke-width="30.6665" stroke-miterlimit="10" stroke-linecap="round" stroke-linejoin="round"/>
<path d="M3239.27 317.206C3286.94 341.889 3365.07 332.633 3375.65 264.75" stroke="#031122" stroke-width="30.6668" stroke-miterlimit="10" stroke-linecap="round" stroke-linejoin="round"/>
<path d="M1792.48 710.586C1812.75 766.588 1875.16 822.107 1922.74 781.039" stroke="white" stroke-opacity="0.08" stroke-width="30.6667" stroke-miterlimit="10" stroke-linecap="round" stroke-linejoin="round"/>
<path d="M1971.02 1047.08C2018.68 1071.77 2096.81 1062.51 2107.39 994.629" stroke="#031122" stroke-width="30.6667" stroke-miterlimit="10" stroke-linecap="round" stroke-linejoin="round"/>
<path d="M3099.57 1214.51C3153.85 1216.05 3210.79 1222.22 3263.76 1208.34" stroke="#031122" stroke-width="30.6667" stroke-miterlimit="10" stroke-linecap="round" stroke-linejoin="round"/>
<path d="M3155.18 1262.68C3173.72 1262.68 3192.25 1262.68 3210.79 1262.68" stroke="#031122" stroke-width="30.6668" stroke-miterlimit="10" stroke-linecap="round" stroke-linejoin="round"/>
<path d="M1790.77 323.373C1845.05 324.914 1901.98 331.086 1954.95 317.202" stroke="#031122" stroke-width="30.6667" stroke-miterlimit="10" stroke-linecap="round" stroke-linejoin="round"/>
<path opacity="0.2" d="M1846.38 371.54C1864.91 371.54 1883.45 371.54 1901.98 371.54" stroke="#031122" stroke-width="30.6667" stroke-miterlimit="10" stroke-linecap="round" stroke-linejoin="round"/>
<path d="M2132.83 1124.64C2160.77 1070.39 2193.47 1015.73 2209.24 955.205" stroke="#031122" stroke-width="30.6667" stroke-miterlimit="10" stroke-linecap="round" stroke-linejoin="round"/>
<path d="M2196.22 1092.05C2205.36 1073.27 2214.52 1054.48 2223.66 1035.7" stroke="#031122" stroke-width="30.6667" stroke-miterlimit="10" stroke-linecap="round" stroke-linejoin="round"/>
</g>
</g>
<g opacity="0.1">
<mask id="mask3_5234_20318" style="mask-type:luminance" maskUnits="userSpaceOnUse" x="1719" y="1382" width="1719" height="1382">
<path d="M1719 1382H3438V2764H1719V1382Z" fill="white"/>
</mask>
<g mask="url(#mask3_5234_20318)">
<path d="M2716.8 2232.18C2606.9 2219.84 2497.02 2207.5 2387.12 2202.87" stroke="#031122" stroke-width="30.6665" stroke-miterlimit="10" stroke-linecap="round" stroke-linejoin="round"/>
<path d="M2696.93 2168.93C2596.31 2165.84 2495.68 2147.33 2397.69 2122.65" stroke="#031122" stroke-width="30.6666" stroke-miterlimit="10" stroke-linecap="round" stroke-linejoin="round"/>
<path opacity="0.2" d="M3436.89 1638.32C3327 1625.98 3217.1 1613.63 3107.2 1609.01" stroke="#031122" stroke-width="30.6667" stroke-miterlimit="10" stroke-linecap="round" stroke-linejoin="round"/>
<path d="M3417.03 1575.07C3316.4 1571.98 3215.77 1553.47 3117.8 1528.78" stroke="#031122" stroke-width="30.6667" stroke-miterlimit="10" stroke-linecap="round" stroke-linejoin="round"/>
<path d="M2233.61 2717.17C2233.71 2588.53 2233.81 2459.89 2227.33 2331.98" stroke="#031122" stroke-width="30.6666" stroke-miterlimit="10" stroke-linecap="round" stroke-linejoin="round"/>
<path d="M2285.75 2688.13C2278.83 2571.11 2285.09 2452.63 2296.86 2336.64" stroke="#031122" stroke-width="30.6667" stroke-miterlimit="10" stroke-linecap="round" stroke-linejoin="round"/>
<path d="M1584.7 1848.08C1693.46 1826.01 1802.24 1803.93 1909.26 1774.41" stroke="#031122" stroke-width="30.6667" stroke-miterlimit="10" stroke-linecap="round" stroke-linejoin="round"/>
<path opacity="0.2" d="M1618.26 1902.92C1715.98 1874.78 1817.23 1861.52 1917.31 1855.03" stroke="#031122" stroke-width="30.6667" stroke-miterlimit="10" stroke-linecap="round" stroke-linejoin="round"/>
<path d="M2941.08 2474.57C3007.29 2556.33 3131.74 2476.11 3105.26 2366.57C3088.05 2290.98 2942.41 2257.04 2917.25 2340.35C2904.01 2383.54 2906.81 2437.72 2988.81 2432.55" stroke="#031122" stroke-width="30.6667" stroke-miterlimit="10" stroke-linecap="round" stroke-linejoin="round"/>
<path d="M2654.86 2008.79C2689.65 2051.75 2756.72 1980.87 2742.8 1923.31C2733.75 1883.58 2657.22 1865.74 2644 1909.52C2637.05 1932.22 2638.5 1960.69 2681.59 1957.98" stroke="#031122" stroke-width="30.6667" stroke-miterlimit="10" stroke-linecap="round" stroke-linejoin="round"/>
<path d="M2958.88 1524.53C2966.1 1412.44 2831.35 1359.38 2779.75 1456.01C2743.43 1521.78 2820.08 1670.02 2889.85 1635.51C2926.17 1617.8 2958.63 1578.88 2900.08 1511.78" stroke="#031122" stroke-width="30.6667" stroke-miterlimit="10" stroke-linecap="round" stroke-linejoin="round"/>
<path d="M2150.73 1914.41C2205.43 1981.97 2308.29 1915.68 2286.41 1825.17C2272.18 1762.7 2151.83 1734.66 2131.03 1803.5C2120.09 1839.19 2119.04 1865.48 2186.79 1861.22" stroke="#031122" stroke-width="30.6666" stroke-miterlimit="10" stroke-linecap="round" stroke-linejoin="round"/>
<path d="M2614.14 2531.51C2567.8 2605.56 2500.28 2488.31 2591.62 2480.6C2640.62 2477.51 2709.48 2560.82 2660.48 2605.56C2637.98 2625.62 2592.95 2607.1 2571.77 2593.22" stroke="#031122" stroke-width="30.6666" stroke-miterlimit="10" stroke-linecap="round" stroke-linejoin="round"/>
<path d="M3319.76 1795.31C3273.42 1869.36 3205.9 1752.11 3297.26 1744.39C3346.25 1741.31 3415.09 1824.62 3366.11 1869.36C3343.59 1889.41 3298.58 1870.9 3277.4 1857.02" stroke="#031122" stroke-width="30.6667" stroke-miterlimit="10" stroke-linecap="round" stroke-linejoin="round"/>
<path d="M2662.44 1508.09C2626.14 1426.78 2746.32 1408.51 2711.58 1507.27C2692.16 1559.76 2597.48 1594.52 2584.9 1523.49C2579.5 1491.08 2613.77 1452.34 2633.87 1436.42" stroke="#031122" stroke-width="30.6668" stroke-miterlimit="10" stroke-linecap="round" stroke-linejoin="round"/>
<path d="M2896.3 2670.21C2861.88 2676.39 2780.47 2666.52 2811.57 2633.19C2842.65 2599.86 2878.46 2634.12 2896.3 2605.42C2914.16 2576.72 2879.09 2562.22 2851.28 2556.05" stroke="#031122" stroke-width="30.6667" stroke-miterlimit="10" stroke-linecap="round" stroke-linejoin="round"/>
<path opacity="0.2" d="M2594.33 2086.68C2559.91 2092.85 2478.5 2082.98 2509.59 2049.66C2540.67 2016.33 2576.49 2050.59 2594.33 2021.88C2612.18 1993.19 2577.12 1978.69 2549.31 1972.52" stroke="#031122" stroke-width="30.6667" stroke-miterlimit="10" stroke-linecap="round" stroke-linejoin="round"/>
<path d="M3326.23 2621.35C3291.81 2627.52 3210.4 2617.65 3241.5 2584.32C3272.58 2550.99 3308.39 2585.25 3326.23 2556.55C3344.07 2527.85 3309.02 2513.35 3281.21 2507.18" stroke="#031122" stroke-width="30.6667" stroke-miterlimit="10" stroke-linecap="round" stroke-linejoin="round"/>
<path d="M1865.44 2352.75C1831 2358.92 1749.6 2349.05 1780.68 2315.72C1811.78 2282.39 1847.58 2316.65 1865.44 2287.95C1883.27 2259.26 1848.23 2244.76 1820.41 2238.59" stroke="#031122" stroke-width="30.6665" stroke-miterlimit="10" stroke-linecap="round" stroke-linejoin="round"/>
<path d="M3187.65 1929.33C3153.23 1935.5 3071.83 1925.64 3102.91 1892.31C3134.01 1858.98 3169.81 1893.24 3187.65 1864.54C3205.5 1835.84 3170.44 1821.34 3142.63 1815.17" stroke="#031122" stroke-width="30.6667" stroke-miterlimit="10" stroke-linecap="round" stroke-linejoin="round"/>
<path d="M2967.18 2193.24C2974.09 2153.46 3010.11 2067.83 3026.24 2113.33C3042.36 2158.83 3002.42 2186.17 3019.38 2215.59C3036.35 2245 3060.12 2211.66 3074.68 2183.38" stroke="#031122" stroke-width="30.6667" stroke-miterlimit="10" stroke-linecap="round" stroke-linejoin="round"/>
<path d="M2329.64 1486.17C2358.22 1462.97 2435.03 1430.07 2419.72 1475.94C2404.4 1521.81 2359.31 1509.43 2354.12 1544.35C2348.95 1579.27 2385.9 1574.3 2413.21 1565.58" stroke="#031122" stroke-width="30.6667" stroke-miterlimit="10" stroke-linecap="round" stroke-linejoin="round"/>
<path d="M2375.45 2607.65C2404.03 2584.45 2480.84 2551.54 2465.53 2597.42C2450.2 2643.29 2405.11 2630.9 2399.93 2665.82C2394.75 2700.75 2431.72 2695.78 2459.02 2687.05" stroke="#031122" stroke-width="30.6666" stroke-miterlimit="10" stroke-linecap="round" stroke-linejoin="round"/>
<path d="M2777.03 2399.93C2667.13 2355.2 2783.65 2291.94 2802.19 2244.12C2827.34 2179.32 2767.76 2137.67 2787.62 2080.58C2800.86 2040.47 2877.66 2006.53 2909.43 1997.28" stroke="#031122" stroke-width="30.6667" stroke-miterlimit="10" stroke-linecap="round" stroke-linejoin="round"/>
<path d="M1936.92 1655.74C2051.15 1629.65 1964.34 1732.35 1969.07 1784.54C1975.47 1855.26 2058.29 1805.74 2059.89 1929.35C2061.51 2052.96 1996.15 2069.53 1946.77 2075.1" stroke="#031122" stroke-width="30.6667" stroke-miterlimit="10" stroke-linecap="round" stroke-linejoin="round"/>
<path d="M3265.07 2207.09C3397.47 2150.01 3239.91 2040.47 3250.5 2163.89" stroke="#031122" stroke-width="30.6667" stroke-miterlimit="10" stroke-linecap="round" stroke-linejoin="round"/>
<path opacity="0.2" d="M2608.29 2324.18C2698.31 2325.72 2657.26 2450.69 2576.5 2387.43" stroke="#031122" stroke-width="30.6667" stroke-miterlimit="10" stroke-linecap="round" stroke-linejoin="round"/>
<path opacity="0.2" d="M3120.13 2524.57C3210.15 2526.11 3169.11 2651.08 3088.35 2587.82" stroke="#031122" stroke-width="30.6667" stroke-miterlimit="10" stroke-linecap="round" stroke-linejoin="round"/>
<path d="M1904.38 1924.07C1998.35 1859.01 2024.04 2018.65 1906.02 2013.01" stroke="#031122" stroke-width="30.6666" stroke-miterlimit="10" stroke-linecap="round" stroke-linejoin="round"/>
<path d="M2249.45 2192.01C2297.35 2103.15 2367.68 2208.92 2279.34 2256.49" stroke="#031122" stroke-width="30.6668" stroke-miterlimit="10" stroke-linecap="round" stroke-linejoin="round"/>
<path d="M2054.87 1672.42C2102.76 1583.57 2173.1 1689.34 2084.76 1736.91" stroke="#031122" stroke-width="30.6667" stroke-miterlimit="10" stroke-linecap="round" stroke-linejoin="round"/>
<path opacity="0.2" d="M2799.46 1891.48C2847.34 1802.63 2917.68 1908.4 2829.35 1955.97" stroke="#031122" stroke-width="30.6667" stroke-miterlimit="10" stroke-linecap="round" stroke-linejoin="round"/>
<path d="M2765.06 2556.42C2713.43 2482.37 2808.76 2445.34 2859.07 2473.11" stroke="#031122" stroke-width="30.6667" stroke-miterlimit="10" stroke-linecap="round" stroke-linejoin="round"/>
<path d="M3035.12 1523.68C2983.48 1449.62 3078.81 1412.6 3129.12 1440.36" stroke="#031122" stroke-width="30.6667" stroke-miterlimit="10" stroke-linecap="round" stroke-linejoin="round"/>
<path d="M2613.41 1697.94C2683.76 1681.94 2669.07 1782.98 2629.96 1816.84" stroke="white" stroke-opacity="0.08" stroke-width="30.6667" stroke-miterlimit="10" stroke-linecap="round" stroke-linejoin="round"/>
<path d="M2181.69 2235.12C2155.54 2312.88 2090.25 2244.24 2086.7 2187.61" stroke="#031122" stroke-width="30.6667" stroke-miterlimit="10" stroke-linecap="round" stroke-linejoin="round"/>
<path d="M2317.24 1607.55C2341.29 1698.76 2240.98 1691.44 2203.28 1643.71" stroke="#031122" stroke-width="30.6665" stroke-miterlimit="10" stroke-linecap="round" stroke-linejoin="round"/>
<path d="M2882.63 1804.16C2842.9 1796.45 2672.81 1812.04 2763.46 1762.51C2854.11 1712.97 2723.74 1605.15 2680.05 1583.55" stroke="#031122" stroke-width="30.6667" stroke-miterlimit="10" stroke-linecap="round" stroke-linejoin="round"/>
<path d="M3275.98 2311.76C3238 2296.19 3068.13 2277.42 3164.75 2246.82C3261.37 2216.21 3148.88 2083.83 3109.03 2053.79" stroke="#031122" stroke-width="30.6667" stroke-miterlimit="10" stroke-linecap="round" stroke-linejoin="round"/>
<path d="M2161.94 2173.11C2160.4 2126.22 2132.2 1962.17 2192.16 2055.61C2252.12 2149.04 2302.37 2049.33 2311.69 1995.1" stroke="#031122" stroke-width="30.6666" stroke-miterlimit="10" stroke-linecap="round" stroke-linejoin="round"/>
<path d="M2409.94 1997.39C2310.27 1985.01 2380.21 1786.45 2440.16 1879.89C2500.12 1973.33 2550.37 1873.62 2559.7 1819.39" stroke="#031122" stroke-width="30.6668" stroke-miterlimit="10" stroke-linecap="round" stroke-linejoin="round"/>
<path d="M2084.72 2370.22C2044.99 2362.5 1874.9 2378.09 1965.55 2328.56C2056.2 2279.03 1966.16 2186.15 1869.48 2180.79" stroke="#031122" stroke-width="30.6665" stroke-miterlimit="10" stroke-linecap="round" stroke-linejoin="round"/>
<path d="M3049.18 2019.38C3031.95 2022.47 2963.77 2051.71 2959.14 2031.49C2954.5 2011.26 3004.81 2002.62 3009.45 1982.4C3014.09 1962.18 2974.36 1980.09 2969.07 1965.43C2963.77 1950.78 3017.46 1905.26 3011.5 1889.06C3005.53 1872.87 2969.07 1906.58 2955.83 1908.12" stroke="#031122" stroke-width="30.6667" stroke-miterlimit="10" stroke-linecap="round" stroke-linejoin="round"/>
<path d="M2373.31 2318.16C2386.06 2304.34 2428.34 2235.49 2441.93 2249.18C2455.52 2262.87 2418.08 2302.97 2424.01 2322.73C2429.93 2342.49 2454.13 2301.66 2465.6 2310.32C2477.05 2318.97 2454.61 2391.77 2467.34 2401.26C2480.09 2410.76 2493.97 2358.99 2504.18 2349.04" stroke="#031122" stroke-width="30.6666" stroke-miterlimit="10" stroke-linecap="round" stroke-linejoin="round"/>
<path d="M1935.7 2612.51C1921.12 2623.61 1869.43 2683.1 1858.02 2666.92C1846.62 2650.74 1889.36 2618.62 1886.4 2597.98C1883.44 2577.34 1853.63 2612.79 1843.6 2602C1833.58 2591.2 1866.29 2523.9 1855.13 2512.02C1843.96 2500.14 1822.72 2548.42 1811.22 2556.2" stroke="#031122" stroke-width="30.6665" stroke-miterlimit="10" stroke-linecap="round" stroke-linejoin="round"/>
<path opacity="0.2" d="M2256.99 1468.75C2259.65 1488.81 2284.73 1568.26 2267.39 1573.66C2250.02 1579.06 2242.61 1520.43 2225.25 1515.04C2207.9 1509.64 2223.27 1555.92 2210.69 1562.09C2198.11 1568.26 2159.07 1505.71 2145.14 1512.65C2131.25 1519.6 2160.18 1562.09 2161.51 1577.52" stroke="#031122" stroke-width="30.6667" stroke-miterlimit="10" stroke-linecap="round" stroke-linejoin="round"/>
<path d="M2495.35 1539.77C2460.35 1619.9 2532.03 1574.47 2540.86 1674.67C2550.32 1781.79 2431.45 1795.08 2407.69 1700.7C2395.3 1651.49 2419.14 1629.02 2456.16 1636.62" stroke="#031122" stroke-width="30.6668" stroke-miterlimit="10" stroke-linecap="round" stroke-linejoin="round"/>
<path opacity="0.2" d="M2156.5 2594.91C2101.95 2531.32 2116.8 2624.8 2032.32 2603.55C1941.98 2580.85 1967.95 2445.03 2052.33 2447.95C2096.34 2449.47 2107.27 2482.84 2089.61 2521.49" stroke="#031122" stroke-width="30.6667" stroke-miterlimit="10" stroke-linecap="round" stroke-linejoin="round"/>
<path d="M2494.98 2466.78C2445.98 2469.87 2394.34 2472.96 2348 2491.47" stroke="#031122" stroke-width="30.6666" stroke-miterlimit="10" stroke-linecap="round" stroke-linejoin="round"/>
<path d="M2989.34 2579.68C3015.96 2627.69 3043.91 2678.39 3080.71 2716.06" stroke="#031122" stroke-width="30.6667" stroke-miterlimit="10" stroke-linecap="round" stroke-linejoin="round"/>
<path d="M1799.96 1538.97C1826.58 1586.99 1854.53 1637.68 1891.33 1675.35" stroke="#031122" stroke-width="30.6668" stroke-miterlimit="10" stroke-linecap="round" stroke-linejoin="round"/>
<path opacity="0.2" d="M1822.01 1919.07C1836.08 1973.84 1850.76 2031.6 1877.08 2079.75" stroke="#031122" stroke-width="30.6667" stroke-miterlimit="10" stroke-linecap="round" stroke-linejoin="round"/>
<path opacity="0.2" d="M2143.13 2330.49C2154.54 2374.93 2142.37 2425.87 2163.73 2464.94" stroke="#031122" stroke-width="30.6667" stroke-miterlimit="10" stroke-linecap="round" stroke-linejoin="round"/>
<path d="M2894.62 2107.57C2893.48 2153.94 2859.37 2247.98 2869.13 2292.89" stroke="#031122" stroke-width="30.6667" stroke-miterlimit="10" stroke-linecap="round" stroke-linejoin="round"/>
<path d="M1905.34 2135.44C1978.64 2144.73 2035.61 2134.35 2072.25 2116.36" stroke="#031122" stroke-width="30.6665" stroke-miterlimit="10" stroke-linecap="round" stroke-linejoin="round"/>
<path d="M1917.73 2446.79C1870.06 2422.11 1791.93 2431.37 1781.35 2499.25" stroke="#031122" stroke-width="30.6668" stroke-miterlimit="10" stroke-linecap="round" stroke-linejoin="round"/>
<path d="M3364.52 2053.41C3344.25 1997.41 3281.84 1941.89 3234.26 1982.96" stroke="white" stroke-opacity="0.08" stroke-width="30.6667" stroke-miterlimit="10" stroke-linecap="round" stroke-linejoin="round"/>
<path d="M3185.98 1716.92C3138.32 1692.23 3060.19 1701.49 3049.61 1769.37" stroke="#031122" stroke-width="30.6667" stroke-miterlimit="10" stroke-linecap="round" stroke-linejoin="round"/>
<path d="M1920 1406.96C1865.78 1408.69 1808.9 1415.65 1756 1400" stroke="#031122" stroke-width="30.6667" stroke-miterlimit="10" stroke-linecap="round" stroke-linejoin="round"/>
<path d="M1865 1464C1846.33 1464 1827.67 1464 1809 1464" stroke="#031122" stroke-width="30.6668" stroke-miterlimit="10" stroke-linecap="round" stroke-linejoin="round"/>
<path d="M3366.23 2440.63C3311.95 2439.09 3255.02 2432.91 3202.05 2446.8" stroke="#031122" stroke-width="30.6667" stroke-miterlimit="10" stroke-linecap="round" stroke-linejoin="round"/>
<path opacity="0.2" d="M3310.62 2392.46C3292.09 2392.46 3273.55 2392.46 3255.02 2392.46" stroke="#031122" stroke-width="30.6667" stroke-miterlimit="10" stroke-linecap="round" stroke-linejoin="round"/>
<path d="M3024.17 1639.36C2996.23 1693.61 2963.53 1748.27 2947.76 1808.79" stroke="#031122" stroke-width="30.6667" stroke-miterlimit="10" stroke-linecap="round" stroke-linejoin="round"/>
<path d="M2960.78 1671.95C2951.64 1690.73 2942.48 1709.52 2933.34 1728.3" stroke="#031122" stroke-width="30.6667" stroke-miterlimit="10" stroke-linecap="round" stroke-linejoin="round"/>
</g>
</g>
</svg>
